<svg xmlns="http://www.w3.org/2000/svg" version="1.0" width="512.000000pt" height="512.000000pt" viewBox="0 0 512.000000 512.000000" preserveAspectRatio="xMidYMid meet">

<g transform="translate(0.000000,512.000000) scale(0.100000,-0.100000)" fill="#9f0f40" stroke="none">
<path d="M4550 4890 c-36 -10 -96 -19 -133 -19 -72 -1 -127 -21 -127 -46 0 -8 20 -29 45 -47 37 -27 125 -93 230 -173 83 -63 144 -104 164 -110 23 -7 24 -6 17 31 -4 22 -11 80 -15 130 -5 51 -13 107 -19 125 -39 131 -35 124 -67 126 -16 1 -59 -7 -95 -17z" fill="#9f0f40"/>
<path d="M3580 4750 c-30 -4 -73 -12 -95 -18 -22 -6 -85 -15 -140 -21 -99 -10 -195 -37 -202 -57 -2 -5 34 -37 79 -69 160 -117 343 -253 431 -321 105 -81 120 -87 200 -80 40 4 104 14 142 22 39 8 90 14 115 14 25 1 65 5 90 11 25 5 68 14 95 19 101 19 101 19 79 40 -10 10 -89 70 -174 133 -85 64 -180 134 -210 157 -30 22 -82 61 -115 85 -33 24 -66 50 -73 56 -20 17 -101 39 -136 38 -17 -1 -56 -5 -86 -9z" fill="#9f0f40"/>
<path d="M2421 4575 c-18 -9 -82 -19 -141 -25 -59 -5 -127 -13 -151 -19 -24 -5 -56 -12 -71 -16 -54 -11 -33 -38 112 -146 77 -57 192 -142 254 -189 63 -47 124 -92 136 -100 12 -8 38 -27 58 -42 19 -16 40 -28 47 -28 44 0 224 22 245 30 14 5 70 14 125 20 101 10 213 34 228 49 5 5 -11 22 -35 39 -24 17 -77 56 -118 87 -41 31 -138 103 -215 160 -77 57 -161 120 -186 139 -26 20 -59 40 -73 46 -40 15 -175 12 -215 -5z" fill="#9f0f40"/>
<path d="M1364 4421 c-17 -4 -36 -11 -42 -15 -7 -4 -66 -11 -131 -17 -66 -5 -135 -16 -155 -24 -19 -8 -54 -15 -76 -15 -70 0 -51 -32 75 -126 164 -124 265 -198 315 -232 25 -18 74 -54 110 -82 36 -27 77 -52 91 -55 33 -7 212 10 305 30 38 8 89 15 114 16 67 2 174 31 177 49 2 8 -16 28 -40 45 -76 53 -408 299 -482 357 -95 74 -164 92 -261 69z" fill="#9f0f40"/>
<path d="M370 4165 c0 -25 9 -87 19 -138 11 -50 22 -122 25 -159 4 -36 14 -84 23 -105 15 -32 18 -87 21 -367 l4 -330 31 -39 32 -39 -28 -22 -27 -22 0 -1375 0 -1376 21 -19 c21 -19 72 -19 2113 -22 1803 -2 2095 0 2111 12 20 14 20 38 25 1378 3 750 9 1374 14 1388 5 14 22 37 37 52 l29 27 0 230 c0 195 -2 231 -14 231 -8 0 -111 -96 -229 -212 -117 -117 -230 -228 -250 -245 l-38 -33 -229 0 c-236 0 -245 1 -221 38 4 8 124 130 266 272 141 143 255 265 253 272 -6 17 -534 25 -588 9 -26 -8 -107 -82 -327 -301 l-292 -290 -230 0 c-206 0 -231 2 -231 16 0 9 120 137 266 285 146 148 264 274 262 281 -6 17 -525 24 -578 9 -27 -8 -106 -80 -327 -301 l-292 -290 -224 0 c-123 0 -226 3 -230 6 -11 12 23 50 278 307 141 142 255 263 252 270 -3 9 -77 12 -298 12 l-295 0 -45 -37 c-25 -21 -52 -38 -59 -38 -7 0 -131 118 -274 261 -144 144 -279 276 -301 294 -51 42 -142 60 -215 43 -47 -11 -50 -10 -83 19 -53 47 -124 93 -141 93 -12 0 -16 -11 -16 -45z m4080 -1783 c41 -20 49 -45 24 -73 -17 -19 -52 -19 -1783 -19 -971 0 -1771 4 -1777 8 -37 25 -15 87 33 95 16 2 802 5 1748 5 1619 2 1722 1 1755 -16z m21 -622 c27 -15 24 -45 -7 -69 l-27 -21 -1741 0 c-957 0 -1751 3 -1764 7 -29 7 -46 47 -32 74 11 19 41 19 1781 19 1201 0 1777 -3 1790 -10z m2 -609 c22 -17 22 -39 0 -63 -15 -17 -45 -18 -544 -18 -290 0 -534 -3 -543 -6 -14 -5 -16 -41 -16 -298 0 -160 -4 -296 -8 -302 -16 -25 -49 -34 -68 -19 -18 12 -19 33 -22 311 -2 218 -6 301 -15 306 -18 11 -1109 10 -1127 -2 -13 -8 -16 -57 -20 -307 l-5 -297 -25 -13 c-22 -11 -28 -10 -45 8 -19 18 -20 35 -23 310 l-4 290 -24 10 c-15 5 -245 9 -550 9 l-524 0 -10 26 c-13 32 2 61 32 67 13 2 811 4 1774 3 1468 -1 1754 -3 1767 -15z" fill="#9f0f40"/>
</g>
</svg>